<svg xmlns="http://www.w3.org/2000/svg" width="1600" height="1000" viewBox="0 0 1600 1000">
<rect width="1600" height="1000" fill="#e9e9e7"/><rect x="55" y="50" width="1490" height="900" rx="30" fill="#fbfbfa" stroke="#d7d7d4"/><rect x="55" y="50" width="278" height="900" rx="30" fill="#171719"/>
<text x="105" y="130" fill="#fff" font-family="Arial" font-size="34" font-weight="700">Signal</text><text x="105" y="172" fill="#8a8a91" font-family="Arial" font-size="14">个人收藏整理空间</text><g font-family="Arial" font-size="18"><text x="105" y="250" fill="#fff">收集箱</text><text x="105" y="308" fill="#85858c">收藏</text><text x="105" y="366" fill="#85858c">置顶</text><text x="105" y="424" fill="#85858c">看板</text><text x="105" y="482" fill="#85858c">备忘录</text></g>
<text x="390" y="128" fill="#171719" font-family="Arial" font-size="34" font-weight="700">收集箱</text><text x="390" y="171" fill="#77777f" font-family="Arial" font-size="15">信息保留来源，也保留它原本的语境</text><rect x="390" y="218" width="1090" height="74" rx="14" fill="#fff" stroke="#d9d9d6"/><text x="422" y="263" fill="#8b8b91" font-family="Arial" font-size="16">搜索标题、正文、标签或原始来源…</text>
<g font-family="Arial"><rect x="390" y="340" width="690" height="510" rx="18" fill="#fff" stroke="#d8d8d5"/><text x="425" y="390" fill="#77777e" font-size="13">知识 · 3 分钟前</text><text x="425" y="440" fill="#171719" font-size="25" font-weight="700">AI 产品中的信任，不等于给出置信度</text><text x="425" y="486" fill="#67676e" font-size="15">收藏内容被组织成一条完整记录，而不是被拆碎成互不相干的待办和知识点。</text><line x1="425" y1="532" x2="1045" y2="532" stroke="#e2e2df"/><text x="425" y="575" fill="#85858b" font-size="13">正文</text><text x="425" y="617" fill="#242428" font-size="16">真正需要被保留的是判断发生的上下文：</text><text x="425" y="654" fill="#242428" font-size="16">来源是谁、当时的问题是什么、结论能否回看。</text><rect x="425" y="705" width="620" height="94" rx="12" fill="#f5f5f3"/><text x="450" y="743" fill="#74747b" font-size="13">原始来源</text><text x="450" y="775" fill="#26262a" font-size="14">产品设计文章 · 保存于 2026/08/16</text>
<rect x="1115" y="340" width="365" height="238" rx="18" fill="#fff" stroke="#d8d8d5"/><text x="1145" y="385" fill="#77777e" font-size="13">任务 · 今天</text><text x="1145" y="430" fill="#171719" font-size="21" font-weight="700">整理作品集项目证据</text><text x="1145" y="476" fill="#74747b" font-size="14">2 / 4 子任务完成</text><rect x="1145" y="515" width="305" height="6" rx="3" fill="#e4e4e1"/><rect x="1145" y="515" width="152" height="6" rx="3" fill="#687b94"/>
<rect x="1115" y="610" width="365" height="240" rx="18" fill="#f1f3f6" stroke="#d8d8d5"/><text x="1145" y="655" fill="#687b94" font-size="13">AI 整理建议</text><text x="1145" y="704" fill="#171719" font-size="19" font-weight="700">保持为一条完整记录</text><text x="1145" y="747" fill="#66666d" font-size="14">检测到内容之间有连续语境，</text><text x="1145" y="778" fill="#66666d" font-size="14">不建议拆成多个独立条目。</text><text x="1145" y="820" fill="#687b94" font-size="13">确认整理 →</text></g>
</svg>
